<svg width="154" height="121" viewBox="0 0 154 121" fill="none" xmlns="http://www.w3.org/2000/svg">
<g clip-path="url(#clip0_152_38)">
<path fill-rule="evenodd" clip-rule="evenodd" d="M21.815 76.923L10.3339 78.4538C10.3339 78.4538 21.2642 90.8399 30.6171 94.91C39.3588 98.7141 54.7273 98.737 54.7273 98.737C54.7273 98.737 47.7559 95.8554 43.629 93.3792C39.502 90.903 33.6787 86.1079 33.6787 86.1079C33.6787 86.1079 36.6328 83.944 38.2712 82.2809C40.1386 80.3852 42.4809 76.923 42.4809 76.923C42.4809 76.923 36.7425 74.9787 33.6787 72.7133C30.4453 70.3224 26.7901 65.0593 26.7901 65.0593C26.7901 65.0593 34.8991 64.9974 39.0366 62.3804C42.8047 59.997 46.3079 53.5782 46.3079 53.5782C46.3079 53.5782 39.7257 50.533 36.3577 47.455C32.805 44.2082 29.0863 37.5048 29.0863 37.5048C29.0863 37.5048 36.7404 33.9648 48.2214 32.5296C59.7025 31.0945 68.8873 32.5296 68.8873 32.5296V21.814C68.8873 21.814 89.5285 21.23 99.8861 27.9372C109.47 34.1437 117.49 51.282 117.49 51.282C117.49 51.282 115.045 37.255 110.219 29.8507C101.372 16.2773 92.2321 9.18484 74.2451 9.18484C64.864 9.18484 52.0484 0 52.0484 0L54.7273 15.6908C54.7273 15.6908 45.9585 13.1117 40.1844 13.0119C35.082 12.9236 31.3834 14.5498 27.6216 16.2038C24.1946 17.7106 20.7151 19.2404 16.0742 19.5178C9.79246 19.8933 0.00100462 18.3697 0.00100462 18.3697C0.00100462 18.3697 -0.106922 27.5527 1.91451 32.9123C5.08994 41.3318 17.2226 50.1339 17.2226 50.1339C17.2226 50.1339 13.1471 52.0735 10.3339 52.4301C6.74783 52.8847 1.14911 51.282 1.14911 51.282C1.14911 51.282 4.72326 60.2279 8.42044 65.0593C12.667 70.6086 21.815 76.923 21.815 76.923ZM94.1467 70.417L105.628 78.4538C105.628 78.4538 95.7848 108.81 102.183 114.045C108.582 119.28 120.17 115.576 120.17 115.576C120.17 115.576 113.63 115.576 106.393 109.453C103.049 106.623 104.46 101.808 107.968 96.8508L117.492 98.3547L111.369 99.8855C111.369 99.8855 130.504 114.428 143.133 120.934L122.467 99.8855L129.738 99.1201L114.332 89.6662C121.643 82.7558 130.699 77.5207 132.8 79.9846C138.55 86.7296 135.096 102.564 135.096 102.564C135.096 102.564 167.625 79.6019 147.342 62.763C129.027 47.5577 109.072 69.6516 109.072 69.6516C109.072 69.6516 97.591 59.3187 89.937 55.109C84.9935 52.3901 79.6392 51.4272 74.8764 50.5707C72.2647 50.1011 69.831 49.6634 67.7403 48.9858C60.8497 46.7523 54.3457 43.6279 54.3457 43.6279C54.3457 43.6279 63.3633 50.4322 69.6538 53.9609C75.5439 57.265 85.3445 61.2322 85.3445 61.2322C85.3445 61.2322 81.1348 66.9727 85.3445 70.417C89.5543 73.8614 94.1467 70.417 94.1467 70.417Z" fill="#FFDDDD"/>
</g>
<defs>
<clipPath id="clip0_152_38">
<rect width="154" height="121" fill="white"/>
</clipPath>
</defs>
</svg>
